<svg width="390" height="89" viewBox="0 0 390 89" fill="none" xmlns="http://www.w3.org/2000/svg">
<foreignObject x="-50.5" y="-50" width="491" height="189.116"><div xmlns="http://www.w3.org/1999/xhtml" style="backdrop-filter:blur(25px);clip-path:url(#bgblur_0_61_8086_clip_path);height:100%;width:100%"></div></foreignObject><g data-figma-bg-blur-radius="50">
<path d="M0 0.615967C0 0.615967 76.0769 16.5981 127 20.616C153.339 22.6941 168.554 23.616 195 23.616C221.446 23.616 235.661 22.6941 262 20.616C312.923 16.5981 390 0.615967 390 0.615967V88.616H0V0.615967Z" fill="url(#paint0_linear_61_8086)" fill-opacity="0.26"/>
<path d="M0.0546875 0.371826C0.0569897 0.372309 0.060824 0.372813 0.0654297 0.373779C0.0746105 0.375705 0.0882719 0.378763 0.106445 0.382568C0.143079 0.390239 0.198029 0.401623 0.270508 0.416748C0.415894 0.447087 0.633267 0.492519 0.917969 0.551514C1.48728 0.669484 2.32886 0.842905 3.41797 1.06519C5.59715 1.50994 8.76812 2.14999 12.7314 2.93042C20.6581 4.49128 31.7571 6.61454 44.4473 8.86304C69.8302 13.3605 101.571 18.359 127.02 20.3669C153.355 22.4448 168.563 23.366 195 23.366C221.437 23.366 235.645 22.4449 261.98 20.3669C287.43 18.359 319.42 13.3605 345.053 8.86304C357.868 6.61448 369.093 4.4913 377.113 2.93042C381.123 2.15 384.333 1.50994 386.539 1.06519C387.642 0.842806 388.496 0.669505 389.072 0.551514C389.36 0.492592 389.579 0.447074 389.727 0.416748C389.8 0.401578 389.856 0.390255 389.894 0.382568C389.912 0.37875 389.926 0.375703 389.936 0.373779C389.94 0.372903 389.943 0.372296 389.945 0.371826C389.946 0.371614 389.948 0.371945 389.948 0.371826C389.949 0.37454 389.955 0.399022 390 0.615967L389.949 0.37085L390.25 0.30835V88.866H-0.25V0.30835L0.0517578 0.37085L0 0.615967C0.0513978 0.371307 0.0521648 0.371707 0.0527344 0.371826H0.0546875Z" stroke="#7582F4" stroke-opacity="0.5" stroke-width="0.5"/>
</g>
<defs>
<clipPath id="bgblur_0_61_8086_clip_path" transform="translate(50.5 50)"><path d="M0 0.615967C0 0.615967 76.0769 16.5981 127 20.616C153.339 22.6941 168.554 23.616 195 23.616C221.446 23.616 235.661 22.6941 262 20.616C312.923 16.5981 390 0.615967 390 0.615967V88.616H0V0.615967Z"/>
</clipPath><linearGradient id="paint0_linear_61_8086" x1="271.51" y1="0.615967" x2="271.51" y2="88.616" gradientUnits="userSpaceOnUse">
<stop stop-color="#3A3A6A"/>
<stop offset="1" stop-color="#25244C"/>
</linearGradient>
</defs>
</svg>
